<svg height="51" viewBox="0 0 51 51" width="51" xmlns="http://www.w3.org/2000/svg"><path d="m257.238 147.239c-2.741 2.74-1.11 8.814 3.645 13.568s10.827 6.385 13.567 3.644a6.55 6.55 0 0 0 1.208-2.717.708.708 0 0 0 -.4-.771l-4.976-1.988a.943.943 0 0 0 -.932.211l-1.44 1.441a.889.889 0 0 1 -.986.2l-.074-.038-.031-.019a15.9 15.9 0 0 1 -5.9-5.9c-.005-.01-.011-.019-.016-.03s-.027-.05-.039-.075a.889.889 0 0 1 .2-.986l1.443-1.443a.942.942 0 0 0 .211-.932l-1.989-4.974a.708.708 0 0 0 -.771-.4 6.557 6.557 0 0 0 -2.72 1.209z" fill="#fff" transform="translate(-240.504 -130.616)"/><g fill="none" stroke="#fff"><circle cx="25.5" cy="25.5" r="25.5" stroke="none"/><circle cx="25.5" cy="25.5" fill="none" r="25"/></g></svg>