<svg height="213.849" viewBox="0 0 288.231 213.849" width="288.231" xmlns="http://www.w3.org/2000/svg" xmlns:xlink="http://www.w3.org/1999/xlink"><clipPath id="a"><path d="m568.458 628.162-117.485 51.885v-26.647l117.485-51.885z" transform="translate(-450.973 -601.511)"/></clipPath><clipPath id="b"><path d="m522.2 657.468-169.567-34.929v-26.651l169.567 34.929z" transform="translate(-352.633 -595.888)"/></clipPath><clipPath id="c"><path d="m568.458 597.249-117.485 51.885v-26.651l117.485-51.883z" transform="translate(-450.973 -570.598)"/></clipPath><g fill="none" opacity=".3" stroke="#fff" stroke-linecap="round" stroke-linejoin="round" transform="translate(.5 99.884)"><path d="m522.2 672.925-169.567-34.925v-26.655l169.567 34.929z" transform="translate(-352.633 -559.46)"/><path d="m568.458 628.162-117.485 51.885v-26.647l117.485-51.885z" transform="translate(-281.409 -566.582)"/><path d="m639.681 616.182-117.481 51.885-169.567-34.928 117.485-51.885z" transform="translate(-352.633 -581.254)"/><g clip-path="url(#a)" transform="translate(169.564 34.929)"><path d="m0 0 31.034 31.034" transform="translate(114.49 1.263)"/><path d="m0 0 31.034 31.034" transform="translate(107.668 4.255)"/><path d="m0 0 31.034 31.034" transform="translate(100.845 7.246)"/><path d="m0 0 31.034 31.034" transform="translate(94.022 10.238)"/><path d="m0 0 31.034 31.034" transform="translate(87.2 13.23)"/><path d="m0 0 31.034 31.034" transform="translate(80.377 16.222)"/><path d="m0 0 31.034 31.034" transform="translate(73.555 19.213)"/><path d="m0 0 31.034 31.034" transform="translate(66.732 22.205)"/><path d="m0 0 31.034 31.034" transform="translate(59.909 25.197)"/><path d="m0 0 31.034 31.034" transform="translate(53.087 28.189)"/><path d="m0 0 31.034 31.034" transform="translate(46.264 31.18)"/><path d="m0 0 31.034 31.034" transform="translate(39.442 34.172)"/><path d="m0 0 31.034 31.034" transform="translate(32.619 37.164)"/><path d="m0 0 31.034 31.034" transform="translate(25.796 40.156)"/><path d="m0 0 31.034 31.034" transform="translate(18.974 43.147)"/><path d="m0 0 31.034 31.034" transform="translate(12.151 46.139)"/><path d="m0 0 31.034 31.034" transform="translate(5.328 49.131)"/><path d="m0 0 31.034 31.034" transform="translate(-1.494 52.123)"/><path d="m0 0 31.034 31.034" transform="translate(-8.317 55.114)"/><path d="m0 0 31.034 31.034" transform="translate(-15.139 58.106)"/><path d="m0 0 31.034 31.034" transform="translate(-21.962 61.098)"/></g><g stroke-dasharray="1.417 2.835"><path d="m375.259 601.366 169.564 34.929v26.628" transform="translate(-336.245 -566.687)"/><path d="m398.284 591.182 169.564 34.929v26.654" transform="translate(-319.57 -574.063)"/></g></g><g opacity=".3" transform="translate(.5 50.192)"><g fill="none" stroke="#fff" stroke-linecap="round" stroke-linejoin="round"><path d="m522.2 657.468-169.567-34.929v-26.651l169.567 34.929z" transform="translate(-352.633 -544.003)"/><path d="m568.458 612.705-117.485 51.885v-26.651l117.485-51.885z" transform="translate(-281.409 -551.126)"/><path d="m639.681 600.726-117.481 51.885-169.567-34.929 117.484-51.882z" transform="translate(-352.633 -565.797)"/></g><g clip-path="url(#b)" transform="translate(0 51.885)"><g fill="none" stroke="#fff" stroke-linecap="round" stroke-linejoin="round" transform="translate(-21.535 -.592)"><path d="m31.034 0-31.034 31.034"/><path d="m31.034 0-31.034 31.034" transform="translate(9.661 1.934)"/><path d="m31.034 0-31.034 31.034" transform="translate(19.322 3.869)"/><path d="m31.034 0-31.034 31.034" transform="translate(28.983 5.803)"/><path d="m31.034 0-31.034 31.034" transform="translate(38.644 7.738)"/><path d="m31.034 0-31.034 31.034" transform="translate(48.305 9.672)"/><path d="m31.034 0-31.034 31.034" transform="translate(57.966 11.607)"/><path d="m31.034 0-31.034 31.034" transform="translate(67.627 13.542)"/><path d="m31.034 0-31.034 31.034" transform="translate(77.287 15.476)"/><path d="m31.034 0-31.034 31.034" transform="translate(86.948 17.41)"/><path d="m31.034 0-31.034 31.034" transform="translate(96.609 19.345)"/><path d="m31.034 0-31.034 31.034" transform="translate(106.27 21.279)"/><path d="m31.034 0-31.034 31.034" transform="translate(115.931 23.214)"/><path d="m31.034 0-31.034 31.034" transform="translate(125.592 25.149)"/><path d="m31.034 0-31.034 31.034" transform="translate(135.253 27.083)"/><path d="m31.034 0-31.034 31.034" transform="translate(144.914 29.018)"/><path d="m31.034 0-31.034 31.034" transform="translate(154.575 30.952)"/><path d="m31.034 0-31.034 31.034" transform="translate(164.236 32.886)"/><path d="m31.034 0-31.034 31.034" transform="translate(173.897 34.821)"/><path d="m31.034 0-31.034 31.034" transform="translate(183.558 36.756)"/></g></g><path d="m533.835 579.434-114.085 52.2v26.628" fill="none" stroke="#fff" stroke-dasharray="1.417 2.835" stroke-linecap="round" stroke-linejoin="round" transform="translate(-304.022 -555.92)"/><path d="m498.7 572.2-114.087 52.2v26.628" fill="none" stroke="#fff" stroke-dasharray="1.417 2.835" stroke-linecap="round" stroke-linejoin="round" transform="translate(-329.471 -561.158)"/></g><g fill="none" opacity=".3" stroke="#fff" stroke-linecap="round" stroke-linejoin="round" transform="translate(.683 .5)"><path d="m522.2 642.012-169.567-34.929v-26.651l169.567 34.929z" transform="translate(-352.633 -528.547)"/><path d="m568.458 597.249-117.485 51.885v-26.651l117.485-51.883z" transform="translate(-281.409 -535.669)"/><path d="m639.681 585.269-117.481 51.885-169.567-34.928 117.485-51.885z" transform="translate(-352.633 -550.341)"/><g clip-path="url(#c)" transform="translate(169.564 34.929)"><path d="m0 0 31.034 31.034" transform="translate(114.49 1.263)"/><path d="m0 0 31.034 31.034" transform="translate(107.668 4.255)"/><path d="m0 0 31.034 31.034" transform="translate(100.845 7.247)"/><path d="m0 0 31.034 31.034" transform="translate(94.022 10.238)"/><path d="m0 0 31.034 31.034" transform="translate(87.2 13.23)"/><path d="m0 0 31.034 31.034" transform="translate(80.377 16.222)"/><path d="m0 0 31.034 31.034" transform="translate(73.555 19.213)"/><path d="m0 0 31.034 31.034" transform="translate(66.732 22.205)"/><path d="m0 0 31.034 31.034" transform="translate(59.909 25.197)"/><path d="m0 0 31.034 31.034" transform="translate(53.087 28.189)"/><path d="m0 0 31.034 31.034" transform="translate(46.264 31.18)"/><path d="m0 0 31.034 31.034" transform="translate(39.442 34.172)"/><path d="m0 0 31.034 31.034" transform="translate(32.619 37.164)"/><path d="m0 0 31.034 31.034" transform="translate(25.796 40.156)"/><path d="m0 0 31.034 31.034" transform="translate(18.974 43.147)"/><path d="m0 0 31.034 31.034" transform="translate(12.151 46.139)"/><path d="m0 0 31.034 31.034" transform="translate(5.328 49.131)"/><path d="m0 0 31.034 31.034" transform="translate(-1.494 52.123)"/><path d="m0 0 31.034 31.034" transform="translate(-8.317 55.114)"/><path d="m0 0 31.034 31.034" transform="translate(-15.139 58.106)"/><path d="m0 0 31.034 31.034" transform="translate(-21.962 61.098)"/></g><g stroke-dasharray="1.417 2.835"><path d="m375.259 570.453 169.564 34.929v26.628" transform="translate(-336.245 -535.774)"/><path d="m398.284 560.269 169.564 34.931v26.653" transform="translate(-319.57 -543.15)"/></g></g></svg>