<svg height="67.28" viewBox="0 0 334.49 67.28" width="334.49" xmlns="http://www.w3.org/2000/svg"><g fill="#fff"><path d="m25.551-108.917h12.739l24.041 64.05h-14.353l-5.113-14.8h-22.427l-5.113 14.8h-13.815zm13.815 38.217-7.8-22.965-7.719 22.965zm32.653-38.215h13.366v52.568h30.321l-1.435 11.482h-42.252zm79.569 65.665a33.37 33.37 0 0 1 -12.828-2.332 26.082 26.082 0 0 1 -9.6-6.728 30.188 30.188 0 0 1 -6.053-10.59 43.273 43.273 0 0 1 -2.107-13.992 43.273 43.273 0 0 1 2.108-13.994 29.819 29.819 0 0 1 6.1-10.585 26.5 26.5 0 0 1 9.643-6.728 33.12 33.12 0 0 1 12.738-2.332 33.37 33.37 0 0 1 12.828 2.332 25.674 25.674 0 0 1 9.554 6.728 30.019 30.019 0 0 1 5.965 10.585 44.138 44.138 0 0 1 2.064 13.994 45.042 45.042 0 0 1 -2.02 13.992 29.483 29.483 0 0 1 -5.921 10.585 25.675 25.675 0 0 1 -9.554 6.728 33.622 33.622 0 0 1 -12.917 2.335zm-.09-11.482q8.432 0 12.559-5.741t4.126-16.416q0-10.585-4.126-16.371t-12.557-5.79q-8.432 0-12.559 5.786t-4.126 16.371q0 10.675 4.126 16.416t12.559 5.742z" transform="translate(-1.51 110.532)"/><path d="m6.092-25.7h3.037l5.732 15.27h-3.423l-1.219-3.529h-5.346l-1.219 3.525h-3.294zm3.294 9.111-1.861-5.479-1.84 5.475zm7.784-9.111h2.866l6.288 10.009v-10.009h3.1v15.27h-2.844l-6.309-9.924v9.924h-3.1zm15.912 0h3.187v15.27h-3.187zm6.844 0h3.828l3.807 11.4 3.914-11.4h3.725v15.27h-2.93v-10.18l-3.49 10.176h-2.48l-3.508-10.159v10.159h-2.866zm23.312 0h3.037l5.732 15.27h-3.423l-1.219-3.529h-5.347l-1.218 3.525h-3.294zm3.294 9.111-1.862-5.479-1.839 5.475zm7.784-9.111h3.184v12.533h7.229l-.342 2.738h-10.071zm-72.609 24.947h3.187v12.533h7.229l-.342 2.738h-10.074zm13.025 0h3.187v15.27h-3.187zm6.844 0h5.5a10.179 10.179 0 0 1 2.791.321 4.592 4.592 0 0 1 1.743.877 2.912 2.912 0 0 1 .888 1.3 5.179 5.179 0 0 1 .246 1.625 3.812 3.812 0 0 1 -.385 1.69 3.14 3.14 0 0 1 -1.459 1.352 5.584 5.584 0 0 1 1.123.759 3.2 3.2 0 0 1 1.027 1.765 4.685 4.685 0 0 1 .1.941 5.647 5.647 0 0 1 -.289 1.818 3.5 3.5 0 0 1 -.962 1.476 4.813 4.813 0 0 1 -1.764.984 8.611 8.611 0 0 1 -2.695.364h-5.86zm5.86 6.053a2.446 2.446 0 0 0 1.732-.471 1.823 1.823 0 0 0 .471-1.347 1.471 1.471 0 0 0 -.61-1.337 3.975 3.975 0 0 0 -2.064-.4h-2.31v3.555zm-.107 6.715a4.875 4.875 0 0 0 1.315-.15 2.107 2.107 0 0 0 .845-.438 1.561 1.561 0 0 0 .449-.674 2.768 2.768 0 0 0 .128-.877 1.98 1.98 0 0 0 -.535-1.5 2.7 2.7 0 0 0 -1.882-.513h-2.993v4.149zm8.619-12.768h10.415v2.717h-7.229v3.336h6.8v2.737h-6.8v3.763h7.678l-.321 2.716h-10.543zm13.666 0h5.411a8.915 8.915 0 0 1 2.962.417 4.78 4.78 0 0 1 1.829 1.091 3.686 3.686 0 0 1 .92 1.5 5.409 5.409 0 0 1 .257 1.615 5.233 5.233 0 0 1 -.535 2.481 4.231 4.231 0 0 1 -1.8 1.69l3.1 6.48h-3.439l-2.567-5.735h-2.994v5.732h-3.144zm5.625 6.887a4.063 4.063 0 0 0 1.24-.16 1.927 1.927 0 0 0 .781-.449 1.506 1.506 0 0 0 .4-.7 3.527 3.527 0 0 0 .107-.9 2.39 2.39 0 0 0 -.128-.781 1.613 1.613 0 0 0 -.438-.663 2.109 2.109 0 0 0 -.855-.449 4.983 4.983 0 0 0 -1.379-.16h-2.2v4.262zm13.687-6.887h3.037l5.737 15.271h-3.427l-1.219-3.529h-5.347l-1.219 3.529h-3.293zm3.294 9.111-1.861-5.475-1.839 5.475zm9.218-6.352h-4.6v-2.759h12.4v2.759h-4.6v12.512h-3.2zm10.33-2.759h3.187v15.27h-3.187zm13.644 15.653a7.956 7.956 0 0 1 -3.058-.556 6.218 6.218 0 0 1 -2.288-1.6 7.2 7.2 0 0 1 -1.444-2.524 10.317 10.317 0 0 1 -.5-3.336 10.317 10.317 0 0 1 .5-3.336 7.109 7.109 0 0 1 1.454-2.524 6.317 6.317 0 0 1 2.3-1.6 8.63 8.63 0 0 1 6.1 0 6.121 6.121 0 0 1 2.278 1.6 7.157 7.157 0 0 1 1.422 2.524 10.523 10.523 0 0 1 .492 3.336 10.739 10.739 0 0 1 -.481 3.336 7.029 7.029 0 0 1 -1.412 2.524 6.121 6.121 0 0 1 -2.278 1.6 8.016 8.016 0 0 1 -3.085.556zm-.021-2.738a3.442 3.442 0 0 0 2.994-1.369 6.639 6.639 0 0 0 .984-3.914 6.648 6.648 0 0 0 -.984-3.9 3.939 3.939 0 0 0 -5.988 0 6.648 6.648 0 0 0 -.984 3.9 6.639 6.639 0 0 0 .987 3.921 3.442 3.442 0 0 0 2.991 1.365zm10.437-12.915h2.866l6.288 10.009v-10.009h3.1v15.27h-2.844l-6.309-9.924v9.924h-3.1zm-107.32 40.607a7.956 7.956 0 0 1 -3.058-.554 6.218 6.218 0 0 1 -2.288-1.6 7.2 7.2 0 0 1 -1.444-2.53 11.325 11.325 0 0 1 0-6.673 7.109 7.109 0 0 1 1.454-2.524 6.317 6.317 0 0 1 2.3-1.6 7.9 7.9 0 0 1 3.037-.556 7.956 7.956 0 0 1 3.058.556 6.121 6.121 0 0 1 2.278 1.6 7.157 7.157 0 0 1 1.422 2.527 10.523 10.523 0 0 1 .492 3.336 10.738 10.738 0 0 1 -.481 3.336 7.029 7.029 0 0 1 -1.412 2.524 6.121 6.121 0 0 1 -2.278 1.6 8.016 8.016 0 0 1 -3.08.558zm-.021-2.738a3.442 3.442 0 0 0 2.994-1.369 6.639 6.639 0 0 0 .984-3.914 6.648 6.648 0 0 0 -.984-3.9 3.432 3.432 0 0 0 -2.994-1.379 3.432 3.432 0 0 0 -2.994 1.379 6.648 6.648 0 0 0 -.984 3.9 6.639 6.639 0 0 0 .984 3.914 3.442 3.442 0 0 0 2.994 1.369zm10.437-12.916h5.411a8.915 8.915 0 0 1 2.962.417 4.78 4.78 0 0 1 1.829 1.091 3.686 3.686 0 0 1 .92 1.5 5.409 5.409 0 0 1 .257 1.615 5.233 5.233 0 0 1 -.535 2.481 4.231 4.231 0 0 1 -1.8 1.69l3.1 6.48h-3.44l-2.566-5.732h-2.994v5.732h-3.144zm5.625 6.887a4.063 4.063 0 0 0 1.24-.16 1.927 1.927 0 0 0 .781-.449 1.506 1.506 0 0 0 .4-.7 3.527 3.527 0 0 0 .107-.9 2.39 2.39 0 0 0 -.128-.781 1.613 1.613 0 0 0 -.438-.663 2.109 2.109 0 0 0 -.855-.449 4.983 4.983 0 0 0 -1.379-.16h-2.2v4.256zm21.708 3.1a7.047 7.047 0 0 1 -.567 2.256 5.534 5.534 0 0 1 -1.262 1.8 5.652 5.652 0 0 1 -1.968 1.187 7.836 7.836 0 0 1 -2.705.428 7.522 7.522 0 0 1 -3.048-.577 6 6 0 0 1 -2.2-1.625 7 7 0 0 1 -1.337-2.534 11.317 11.317 0 0 1 -.449-3.283 10.523 10.523 0 0 1 .489-3.339 7.249 7.249 0 0 1 1.412-2.524 6.1 6.1 0 0 1 2.224-1.6 7.461 7.461 0 0 1 2.951-.556 7.956 7.956 0 0 1 2.534.364 4.956 4.956 0 0 1 1.818 1.048 5.241 5.241 0 0 1 1.187 1.647 8.711 8.711 0 0 1 .664 2.153l-3.165.406a4.264 4.264 0 0 0 -.909-2.117 2.686 2.686 0 0 0 -2.128-.77 3.175 3.175 0 0 0 -2.791 1.379 6.82 6.82 0 0 0 -.952 3.9 6.48 6.48 0 0 0 1.016 3.914 3.224 3.224 0 0 0 2.729 1.372 2.808 2.808 0 0 0 2.171-.759 3.813 3.813 0 0 0 .866-2.171zm2.737-9.987h3.186v5.9h6.052v-5.9h3.188v15.27h-3.187v-6.417h-6.053v6.416h-3.186zm16.083 0h10.415v2.716h-7.229v3.336h6.8v2.738h-6.8v3.764h7.678l-.321 2.716h-10.543zm15.933 10.286a2.758 2.758 0 0 0 .909 2.053 3.721 3.721 0 0 0 2.363.642 4.279 4.279 0 0 0 1.262-.16 2.414 2.414 0 0 0 .834-.428 1.522 1.522 0 0 0 .46-.631 2.2 2.2 0 0 0 .139-.791 1.7 1.7 0 0 0 -.449-1.123 2.864 2.864 0 0 0 -1.647-.759l-1.989-.364a11.762 11.762 0 0 1 -2.075-.556 4.792 4.792 0 0 1 -1.508-.888 3.56 3.56 0 0 1 -.93-1.337 5 5 0 0 1 -.321-1.882 4.077 4.077 0 0 1 .438-1.925 3.934 3.934 0 0 1 1.219-1.39 5.714 5.714 0 0 1 1.871-.845 9.348 9.348 0 0 1 2.4-.289 8.6 8.6 0 0 1 2.78.385 5.05 5.05 0 0 1 1.8 1.016 3.967 3.967 0 0 1 1.016 1.465 6.869 6.869 0 0 1 .438 1.732l-3.02.389a2.975 2.975 0 0 0 -.909-1.818 3.16 3.16 0 0 0 -2.042-.556 5.337 5.337 0 0 0 -1.337.139 2.663 2.663 0 0 0 -.845.364 1.243 1.243 0 0 0 -.449.524 1.559 1.559 0 0 0 -.128.62 1.628 1.628 0 0 0 .481 1.283 3.58 3.58 0 0 0 1.636.663l2.1.406a7.257 7.257 0 0 1 3.636 1.593 4.183 4.183 0 0 1 1.155 3.176 4.516 4.516 0 0 1 -.374 1.85 4.126 4.126 0 0 1 -1.112 1.476 5.253 5.253 0 0 1 -1.85.984 8.653 8.653 0 0 1 -2.609.353 7.457 7.457 0 0 1 -4.78-1.337 5.211 5.211 0 0 1 -1.786-4.031zm15.313-7.528h-4.6v-2.758h12.4v2.759h-4.6v12.51h-3.2zm10.33-2.759h5.411a8.915 8.915 0 0 1 2.962.417 4.78 4.78 0 0 1 1.829 1.091 3.686 3.686 0 0 1 .92 1.5 5.409 5.409 0 0 1 .257 1.615 5.233 5.233 0 0 1 -.532 2.478 4.231 4.231 0 0 1 -1.8 1.69l3.1 6.48h-3.443l-2.566-5.732h-2.991v5.732h-3.144zm5.625 6.887a4.063 4.063 0 0 0 1.24-.16 1.927 1.927 0 0 0 .781-.449 1.507 1.507 0 0 0 .4-.7 3.527 3.527 0 0 0 .107-.9 2.39 2.39 0 0 0 -.128-.781 1.613 1.613 0 0 0 -.438-.663 2.109 2.109 0 0 0 -.855-.449 4.983 4.983 0 0 0 -1.379-.16h-2.2v4.256zm13.687-6.886h3.035l5.732 15.27h-3.422l-1.219-3.529h-5.347l-1.219 3.529h-3.294zm3.294 9.111-1.859-5.476-1.839 5.475z" transform="translate(199.756 27.384)"/></g></svg>