<svg height="17.032" viewBox="0 0 17.032 17.032" width="17.032" xmlns="http://www.w3.org/2000/svg"><path d="m256.984 147.006c-2.219 2.218-.9 7.136 2.951 10.985s8.766 5.169 10.984 2.951a5.3 5.3 0 0 0 .978-2.2.573.573 0 0 0 -.325-.624l-4.029-1.609a.764.764 0 0 0 -.754.171l-1.166 1.166a.72.72 0 0 1 -.8.164l-.06-.03-.025-.015a12.872 12.872 0 0 1 -4.778-4.777c0-.008-.009-.016-.013-.024s-.022-.04-.032-.061a.72.72 0 0 1 .162-.8l1.168-1.168a.762.762 0 0 0 .171-.755l-1.61-4.027a.573.573 0 0 0 -.624-.326 5.308 5.308 0 0 0 -2.198.979z" fill="none" stroke="#000" stroke-linecap="round" stroke-linejoin="round" transform="translate(-255.387 -145.508)"/></svg>