<svg xmlns="http://www.w3.org/2000/svg" width="376.38" height="100.5" viewBox="0 0 376.38 100.5">
  <path id="パス_408" data-name="パス 408" d="M4.266-38.556H9.18l19.6,30.618V-38.556h4.806V0H28.836L9.072-30.456V0H4.266Zm37.422,0h4.968v23.274q0,5.994,2.241,8.964t7.425,2.97q5.238,0,7.4-3t2.16-8.937V-38.556h4.968v23.274a23.852,23.852,0,0,1-1,7.371,13.388,13.388,0,0,1-2.862,5.049A10.924,10.924,0,0,1,62.4.054a19.145,19.145,0,0,1-6.129.918Q49.3.972,45.495-2.916T41.688-15.5Zm37.26,0H85.1L97.524-5.94,110.16-38.556h5.94V0h-4.59V-30.4L99.414,0h-4.05L83.484-30.294V0H78.948Zm45.684,0h12.8a24.288,24.288,0,0,1,6.75.783,11.252,11.252,0,0,1,4.185,2.106,6.938,6.938,0,0,1,2.133,3.132,12.3,12.3,0,0,1,.594,3.861,9.335,9.335,0,0,1-1.215,4.752,9.087,9.087,0,0,1-4.239,3.51,12.5,12.5,0,0,1,3.213,1.755,9.109,9.109,0,0,1,2.052,2.214,7.83,7.83,0,0,1,1.08,2.538,12.412,12.412,0,0,1,.3,2.727,12.9,12.9,0,0,1-.729,4.4A8.913,8.913,0,0,1,149.2-3.24a11.285,11.285,0,0,1-4.266,2.376A21.283,21.283,0,0,1,138.4,0h-13.77Zm13.446,16.308q4.374,0,6.264-1.593a5.765,5.765,0,0,0,1.89-4.671,5.127,5.127,0,0,0-2.025-4.536q-2.025-1.4-6.939-1.4h-7.776v12.2ZM138.24-4.1a16.8,16.8,0,0,0,4.4-.486,7.317,7.317,0,0,0,2.808-1.377,4.629,4.629,0,0,0,1.458-2.16,9.493,9.493,0,0,0,.4-2.889,6.67,6.67,0,0,0-2-5.211q-2-1.809-6.7-1.809h-9.126V-4.1Zm20.52-34.452h24.948v4.374h-19.98v12.1h18.9v4.428h-18.9V-4.374h21.006L183.924,0H158.76Zm32.076,0h12.636a21.611,21.611,0,0,1,7.074.972,11.832,11.832,0,0,1,4.347,2.511,8.1,8.1,0,0,1,2.187,3.483,13.419,13.419,0,0,1,.594,3.942,12.059,12.059,0,0,1-1.539,6.264,10.117,10.117,0,0,1-5.049,4.05L219.186,0h-5.562l-7.29-16.146a12.759,12.759,0,0,1-1.512.135q-.81.027-1.458.027H195.75V0h-4.914ZM203.958-20.25a14.847,14.847,0,0,0,4.266-.513,6.425,6.425,0,0,0,2.646-1.458,5.031,5.031,0,0,0,1.35-2.295,11.212,11.212,0,0,0,.378-3.024,8.7,8.7,0,0,0-.432-2.862,4.844,4.844,0,0,0-1.485-2.133,7.057,7.057,0,0,0-2.835-1.35,18.622,18.622,0,0,0-4.536-.459h-7.56V-20.25ZM253.422.972a19.036,19.036,0,0,1-7.209-1.323A15.3,15.3,0,0,1,240.6-4.239a17.8,17.8,0,0,1-3.645-6.345,26.584,26.584,0,0,1-1.3-8.64,26.085,26.085,0,0,1,1.323-8.64,18.409,18.409,0,0,1,3.672-6.372,15.439,15.439,0,0,1,5.616-3.942,18.556,18.556,0,0,1,7.155-1.35,19.037,19.037,0,0,1,7.209,1.323,15.059,15.059,0,0,1,5.589,3.888A18.062,18.062,0,0,1,269.838-28a26.339,26.339,0,0,1,1.3,8.613,27.355,27.355,0,0,1-1.269,8.667,17.959,17.959,0,0,1-3.591,6.4,15.191,15.191,0,0,1-5.589,3.942A18.847,18.847,0,0,1,253.422.972Zm0-4.32a12.341,12.341,0,0,0,5.427-1.134,10.6,10.6,0,0,0,3.915-3.213,14.765,14.765,0,0,0,2.376-5.022,24.711,24.711,0,0,0,.81-6.561,24.488,24.488,0,0,0-.81-6.507,14.769,14.769,0,0,0-2.4-5.049,10.791,10.791,0,0,0-3.915-3.24,12.166,12.166,0,0,0-5.4-1.134,12.473,12.473,0,0,0-5.481,1.134A10.73,10.73,0,0,0,244-30.834a14.41,14.41,0,0,0-2.376,5.049,25.287,25.287,0,0,0-.783,6.507,25.518,25.518,0,0,0,.783,6.561,14.4,14.4,0,0,0,2.349,5.022,10.6,10.6,0,0,0,3.915,3.213A12.607,12.607,0,0,0,253.422-3.348Zm24.894-35.208h23.922v4.374H283.284v12.636H301.05v4.482H283.284V0h-4.968ZM35.856,47.31A17.9,17.9,0,0,1,34.4,52.737a13.324,13.324,0,0,1-7.8,7.209,18.6,18.6,0,0,1-6.453,1.026,18.246,18.246,0,0,1-7.182-1.35,14.376,14.376,0,0,1-5.4-3.942,18.33,18.33,0,0,1-3.429-6.345,27.759,27.759,0,0,1-1.215-8.559,26.583,26.583,0,0,1,1.3-8.64A18.316,18.316,0,0,1,7.83,25.764a15.411,15.411,0,0,1,5.481-3.942,17.2,17.2,0,0,1,6.831-1.35,18.475,18.475,0,0,1,6.156.918,12.558,12.558,0,0,1,4.4,2.592,13.01,13.01,0,0,1,2.916,4,22.887,22.887,0,0,1,1.7,5.13l-4.86.81a19.672,19.672,0,0,0-1.269-3.807,9.608,9.608,0,0,0-2-2.889,8.068,8.068,0,0,0-2.916-1.809,12.1,12.1,0,0,0-4.131-.621,10.634,10.634,0,0,0-8.883,4.4A15.075,15.075,0,0,0,8.91,34.215a24.489,24.489,0,0,0-.81,6.507,24.489,24.489,0,0,0,.81,6.507,15.393,15.393,0,0,0,2.349,5.049,10.52,10.52,0,0,0,3.78,3.24A11.27,11.27,0,0,0,20.2,56.652a13.292,13.292,0,0,0,4.509-.675,8.074,8.074,0,0,0,3.078-1.917A9.079,9.079,0,0,0,29.7,51.09a17.1,17.1,0,0,0,1.026-3.78ZM59.022,60.972a19.036,19.036,0,0,1-7.209-1.323A15.3,15.3,0,0,1,46.2,55.761a17.8,17.8,0,0,1-3.645-6.345,26.583,26.583,0,0,1-1.3-8.64,26.086,26.086,0,0,1,1.323-8.64,18.409,18.409,0,0,1,3.672-6.372,15.439,15.439,0,0,1,5.616-3.942,18.556,18.556,0,0,1,7.155-1.35A19.036,19.036,0,0,1,66.231,21.8a15.059,15.059,0,0,1,5.589,3.888A18.062,18.062,0,0,1,75.438,32a26.338,26.338,0,0,1,1.3,8.613,27.355,27.355,0,0,1-1.269,8.667,17.96,17.96,0,0,1-3.591,6.4,15.191,15.191,0,0,1-5.589,3.942A18.847,18.847,0,0,1,59.022,60.972Zm0-4.32a12.341,12.341,0,0,0,5.427-1.134,10.6,10.6,0,0,0,3.915-3.213,14.765,14.765,0,0,0,2.376-5.022,24.712,24.712,0,0,0,.81-6.561,24.489,24.489,0,0,0-.81-6.507,14.769,14.769,0,0,0-2.4-5.049,10.791,10.791,0,0,0-3.915-3.24,12.166,12.166,0,0,0-5.4-1.134,12.473,12.473,0,0,0-5.481,1.134,10.73,10.73,0,0,0-3.942,3.24,14.41,14.41,0,0,0-2.376,5.049,25.287,25.287,0,0,0-.783,6.507,25.518,25.518,0,0,0,.783,6.561,14.4,14.4,0,0,0,2.349,5.022,10.6,10.6,0,0,0,3.915,3.213A12.607,12.607,0,0,0,59.022,56.652ZM83.916,21.444h6.156l12.42,32.616,12.636-32.616h5.94V60h-4.59V29.6L104.382,60h-4.05L88.452,29.706V60H83.916Zm45.684,0h12.906a22.844,22.844,0,0,1,7.047.918,11.09,11.09,0,0,1,4.374,2.484,8.426,8.426,0,0,1,2.214,3.645,15.3,15.3,0,0,1,.621,4.4,16.449,16.449,0,0,1-.648,4.644,9.251,9.251,0,0,1-2.268,3.888,11.113,11.113,0,0,1-4.374,2.646,21.211,21.211,0,0,1-6.966.972h-7.992V60H129.6ZM142.452,40.83a16.774,16.774,0,0,0,4.644-.54,6.6,6.6,0,0,0,2.862-1.566,5.552,5.552,0,0,0,1.431-2.457,11.8,11.8,0,0,0,.405-3.213,11.033,11.033,0,0,0-.432-3.24,4.851,4.851,0,0,0-1.512-2.322,7.09,7.09,0,0,0-2.889-1.377,18.964,18.964,0,0,0-4.563-.459h-7.884V40.83ZM163.4,21.444h4.968V55.572h19.98L187.6,60H163.4Zm30.348,0H218.7v4.374H198.72v12.1h18.9v4.428h-18.9V55.626h21.006L218.916,60H193.752Zm42.066,4.428H223.074V21.444h30.51v4.428H240.84V60h-5.022Zm23-4.428h4.968V60h-4.968Zm29.916,39.528a19.037,19.037,0,0,1-7.209-1.323,15.3,15.3,0,0,1-5.616-3.888,17.8,17.8,0,0,1-3.645-6.345,26.583,26.583,0,0,1-1.3-8.64,26.085,26.085,0,0,1,1.323-8.64,18.409,18.409,0,0,1,3.672-6.372,15.439,15.439,0,0,1,5.616-3.942,18.556,18.556,0,0,1,7.155-1.35,19.036,19.036,0,0,1,7.209,1.323,15.059,15.059,0,0,1,5.589,3.888A18.061,18.061,0,0,1,305.154,32a26.338,26.338,0,0,1,1.3,8.613,27.355,27.355,0,0,1-1.269,8.667,17.96,17.96,0,0,1-3.591,6.4A15.191,15.191,0,0,1,296,59.622,18.847,18.847,0,0,1,288.738,60.972Zm0-4.32a12.341,12.341,0,0,0,5.427-1.134,10.6,10.6,0,0,0,3.915-3.213,14.765,14.765,0,0,0,2.376-5.022,24.711,24.711,0,0,0,.81-6.561,24.488,24.488,0,0,0-.81-6.507,14.769,14.769,0,0,0-2.4-5.049,10.791,10.791,0,0,0-3.915-3.24,12.166,12.166,0,0,0-5.4-1.134,12.473,12.473,0,0,0-5.481,1.134,10.729,10.729,0,0,0-3.942,3.24,14.409,14.409,0,0,0-2.376,5.049,25.287,25.287,0,0,0-.783,6.507,25.517,25.517,0,0,0,.783,6.561,14.4,14.4,0,0,0,2.349,5.022,10.6,10.6,0,0,0,3.915,3.213A12.607,12.607,0,0,0,288.738,56.652Zm24.894-35.208h4.914l19.6,30.618V21.444h4.806V60H338.2L318.438,29.544V60h-4.806Zm40.662,27.594a8.393,8.393,0,0,0,3.213,5.859q2.565,1.809,7.641,1.809a13.569,13.569,0,0,0,4.239-.567,7.441,7.441,0,0,0,2.727-1.512,5.3,5.3,0,0,0,1.458-2.214A8.237,8.237,0,0,0,374,49.74a8.771,8.771,0,0,0-.27-2.187,4.491,4.491,0,0,0-1.053-1.917,6.749,6.749,0,0,0-2.16-1.512,14.144,14.144,0,0,0-3.537-1.026l-4.86-.864a28.917,28.917,0,0,1-5.076-1.3,12.7,12.7,0,0,1-3.753-2.079,7.989,7.989,0,0,1-2.322-3.159,11.992,11.992,0,0,1-.783-4.59,9.427,9.427,0,0,1,1.107-4.644,10.067,10.067,0,0,1,3-3.348,13.087,13.087,0,0,1,4.482-2,23.115,23.115,0,0,1,5.616-.648,20.9,20.9,0,0,1,6.4.837,11.989,11.989,0,0,1,4.185,2.241,9.53,9.53,0,0,1,2.457,3.213,18.73,18.73,0,0,1,1.269,3.7l-4.644.918a13.6,13.6,0,0,0-1.107-2.889,6.326,6.326,0,0,0-1.782-2.106,7.806,7.806,0,0,0-2.727-1.269,15.5,15.5,0,0,0-3.942-.432,17.117,17.117,0,0,0-4.428.486,8.135,8.135,0,0,0-2.862,1.323,4.7,4.7,0,0,0-1.539,2,6.622,6.622,0,0,0-.459,2.457,7.779,7.779,0,0,0,.351,2.457,4.38,4.38,0,0,0,1.188,1.836,6.582,6.582,0,0,0,2.187,1.3,20.091,20.091,0,0,0,3.348.891l5.4.972q5.994,1.134,8.8,3.753t2.808,7.695a10.673,10.673,0,0,1-.891,4.347,9.888,9.888,0,0,1-2.646,3.537,12.685,12.685,0,0,1-4.4,2.376,20.055,20.055,0,0,1-6.21.864,26.238,26.238,0,0,1-6.183-.675,13.918,13.918,0,0,1-4.833-2.133,10.958,10.958,0,0,1-3.294-3.726,13.563,13.563,0,0,1-1.512-5.4Z" transform="translate(-2.916 39.528)" opacity="0.2"/>
</svg>
